<svg id="Capa_1" data-name="Capa 1" xmlns="http://www.w3.org/2000/svg" xmlns:xlink="http://www.w3.org/1999/xlink" viewBox="0 0 370.64 243.27"><defs><style>.cls-1{fill:#1d1d1b;stroke:#332822;}.cls-1,.cls-2,.cls-3{stroke-miterlimit:10;}.cls-2,.cls-3{stroke:#634e42;}.cls-2{fill:url(#Naranja_amarillo);}.cls-3{fill:url(#Naranja_amarillo-2);}</style><linearGradient id="Naranja_amarillo" x1="643.79" y1="431.25" x2="764.21" y2="431.25" gradientTransform="matrix(-1, 0, 0, 1, 1734.64, 0)" gradientUnits="userSpaceOnUse"><stop offset="0" stop-color="#ffee25"/><stop offset="0.02" stop-color="#ffe920"/><stop offset="0.1" stop-color="#fed60e"/><stop offset="0.19" stop-color="#fdcb04"/><stop offset="0.28" stop-color="#fdc700"/><stop offset="0.67" stop-color="#f08f34"/><stop offset="0.89" stop-color="#e86031"/><stop offset="1" stop-color="#e2312d"/></linearGradient><linearGradient id="Naranja_amarillo-2" x1="827.32" y1="431.25" x2="947.75" y2="431.25" gradientTransform="matrix(1, 0, 0, 1, 0, 0)" xlink:href="#Naranja_amarillo"/></defs><polyline class="cls-1" points="237.07 126.66 256.64 164.6 366.15 242.31 368.84 241.31 184.21 202.46 185.14 202.46 0.5 241.31 0.5 242.31 110.01 164.6 130.06 134.25 185.14 1.31 240.22 134.25"/><path class="cls-2" d="M1076.18,450.83c-1,7.61-106,8.49-105.75,56l1.05-28.46,119.37-122.65Z" transform="translate(-775.1 -291.44)"/><path class="cls-3" d="M842,450.83c1,7.61,106,8.49,105.74,56l-1-28.46L827.32,355.69Z" transform="translate(-775.1 -291.44)"/></svg>