<svg id="Capa_1" data-name="Capa 1" xmlns="http://www.w3.org/2000/svg" viewBox="0 0 143.01 135.16"><defs><style>.cls-1{fill:#fff;}</style></defs><path class="cls-1" d="M226,366.31a13.45,13.45,0,0,1,13.39-13.39H323l33.75,39.21-30.65-21.29-17.28,9v80.73l14.88,26.91-77.37.61,28.19-22.18.51-24.51H264.3L250.1,416h25.12V383.77l13.39-3.94h-29l9.2,26.52-39.92-19.42Z" transform="translate(-225.99 -352.92)"/><path class="cls-1" d="M325.43,441.31V414.4H369v49.91l-21.54,22.93-73.24.32,11.95-26.69V380.14l-9.88-9.7-31,22,26.14-39.21h84a13,13,0,0,1,9.58,3.93c2.62,2.63,3.94,5.78,3.94,5.33L364,388.87l-35.77,16.51,7.21-25.24h-29l13.38,3.94v76.65H335.4l13.13-19.42Z" transform="translate(-225.99 -352.92)"/></svg>